<svg width="14" height="12" viewBox="0 0 14 12" fill="black" xmlns="http://www.w3.org/2000/svg">
<path fill-rule="evenodd" clip-rule="evenodd" d="M14 1C14 0.734784 13.8946 0.48043 13.7071 0.292893C13.5196 0.105357 13.2652 0 13 0L1 0C0.734784 0 0.48043 0.105357 0.292893 0.292893C0.105357 0.48043 9.53674e-07 0.734784 9.53674e-07 1C9.53674e-07 1.26522 0.105357 1.51957 0.292893 1.70711C0.48043 1.89464 0.734784 2 1 2L13 2C13.2652 2 13.5196 1.89464 13.7071 1.70711C13.8946 1.51957 14 1.26522 14 1ZM14 6C14 5.73478 13.8946 5.48043 13.7071 5.29289C13.5196 5.10536 13.2652 5 13 5L1 5C0.734784 5 0.48043 5.10536 0.292893 5.29289C0.105357 5.48043 9.53674e-07 5.73478 9.53674e-07 6C9.53674e-07 6.26522 0.105357 6.51957 0.292893 6.70711C0.48043 6.89464 0.734784 7 1 7L13 7C13.2652 7 13.5196 6.89464 13.7071 6.70711C13.8946 6.51957 14 6.26522 14 6ZM8 11C8 10.7348 7.89464 10.4804 7.70711 10.2929C7.51957 10.1054 7.26522 10 7 10L1 10C0.734784 10 0.48043 10.1054 0.292893 10.2929C0.105357 10.4804 9.53674e-07 10.7348 9.53674e-07 11C9.53674e-07 11.2652 0.105357 11.5196 0.292893 11.7071C0.48043 11.8946 0.734784 12 1 12L7 12C7.26522 12 7.51957 11.8946 7.70711 11.7071C7.89464 11.5196 8 11.2652 8 11Z" fill="#fff"/>
</svg>
